<svg width="8" height="12" viewBox="0 0 8 12" fill="none" xmlns="http://www.w3.org/2000/svg">
<path d="M1.07733 11.462V10.7953C0.780889 10.7953 0.527333 10.6898 0.316667 10.4787C0.106 10.2676 0.000444444 10.0144 0 9.71933V3.206C0 2.91 0.105555 2.65667 0.316667 2.446C0.527778 2.23533 0.781111 2.12956 1.07667 2.12867H2.60267V0.513333C2.60267 0.375556 2.65378 0.255556 2.756 0.153334C2.85822 0.0511113 2.978 0 3.11533 0H4.88467C5.02244 0 5.14244 0.0511113 5.24467 0.153334C5.34689 0.255556 5.398 0.375556 5.398 0.513333V2.12867H6.92333C7.21933 2.12867 7.47267 2.23422 7.68333 2.44533C7.894 2.65644 7.99956 2.90978 8 3.20533V9.71867C8 10.0147 7.89444 10.268 7.68333 10.4787C7.47222 10.6893 7.21889 10.7949 6.92333 10.7953V11.462H6.25667V10.7953H1.74333V11.462H1.07733ZM3.26933 2.12867H4.73067V0.667333H3.26933V2.12867ZM4 5.71867C4.58889 5.71867 5.164 5.64356 5.72533 5.49333C6.28667 5.34311 6.82267 5.11822 7.33333 4.81867V3.20533C7.33333 3.08578 7.29489 2.98756 7.218 2.91067C7.14111 2.83378 7.04289 2.79533 6.92333 2.79533H1.07667C0.957111 2.79533 0.858889 2.83378 0.782 2.91067C0.705111 2.98756 0.666667 3.086 0.666667 3.206V4.81867C1.17778 5.11867 1.714 5.34355 2.27533 5.49333C2.83667 5.64311 3.41156 5.71822 4 5.71867ZM3.66667 7.052V6.37733C3.14044 6.33911 2.62711 6.25578 2.12667 6.12733C1.62622 5.99889 1.13956 5.81467 0.666667 5.57467V9.71867C0.666667 9.83822 0.705111 9.93644 0.782 10.0133C0.858889 10.0902 0.957333 10.1287 1.07733 10.1287H6.92333C7.04289 10.1287 7.14111 10.0902 7.218 10.0133C7.29489 9.93644 7.33333 9.83822 7.33333 9.71867V5.57467C6.86 5.81467 6.37333 5.99889 5.87333 6.12733C5.37333 6.25578 4.86 6.33911 4.33333 6.37733V7.052H3.66667Z" fill="#FF914D"/>
</svg>
